<?xml version="1.0" encoding="UTF-8"?>
<!-- Generator: visioncortex VTracer 0.6.12 -->
<svg version="1.1" xmlns="http://www.w3.org/2000/svg" width="1254" height="1254" viewBox="0 0 1254 1254">
<path d="M0 0 C2.702 1.99 5.376 4.012 8.047 6.043 C32.964 24.955 59.806 41.075 87.773 55.043 C88.801 55.561 89.829 56.078 90.887 56.612 C160.103 91.341 235.586 111.588 312.531 119.133 C312.979 119.177 312.979 119.177 315.242 119.4 C319.593 119.826 323.943 120.234 328.298 120.612 C329.872 120.758 331.446 120.904 333.02 121.051 C333.732 121.107 334.445 121.163 335.18 121.221 C340.448 121.727 344.012 123.03 347.523 127.043 C349.476 130.167 349.899 132.719 349.902 136.318 C349.904 136.757 349.904 136.757 349.912 138.977 C349.91 139.942 349.909 140.906 349.907 141.9 C349.908 142.413 349.908 142.413 349.914 145.005 C349.92 148.457 349.92 151.908 349.919 155.36 C349.922 157.829 349.925 160.298 349.929 162.767 C349.937 168.796 349.94 174.824 349.94 180.853 C349.941 185.769 349.943 190.685 349.946 195.601 C349.955 209.583 349.96 223.564 349.959 237.546 C349.959 237.923 349.959 237.923 349.959 239.832 C349.959 240.209 349.959 240.209 349.959 242.12 C349.958 254.281 349.968 266.441 349.982 278.602 C349.996 291.13 350.003 303.659 350.002 316.188 C350.002 323.204 350.005 330.219 350.015 337.235 C350.117 405.98 350.117 405.98 345.961 437.855 C345.876 438.522 345.792 439.188 345.704 439.875 C338.336 497.759 322.284 553.552 296.773 606.043 C296.291 607.05 295.808 608.056 295.31 609.094 C287.887 624.539 279.653 639.39 270.773 654.043 C270.155 655.065 269.537 656.087 268.9 657.14 C260.752 670.548 252.175 683.484 242.773 696.043 C241.743 697.433 240.713 698.824 239.684 700.215 C230.236 712.938 220.496 725.379 210.174 737.404 C208.765 739.052 207.37 740.71 205.977 742.371 C192.887 757.918 178.619 772.292 164.273 786.668 C163.569 787.375 162.866 788.081 162.14 788.809 C160.094 790.862 158.044 792.91 155.992 794.957 C155.384 795.567 154.776 796.177 154.15 796.805 C150.414 800.522 146.557 804.049 142.565 807.49 C139.971 809.738 137.472 812.079 134.961 814.418 C130.362 818.668 125.623 822.679 120.742 826.605 C117.251 829.472 113.858 832.441 110.461 835.418 C104.033 841.028 97.435 846.358 90.679 851.567 C88.62 853.162 86.573 854.771 84.527 856.383 C74.853 863.988 65.009 871.304 54.993 878.452 C52.826 880.005 50.671 881.574 48.52 883.148 C33.705 893.975 18.491 904.213 3.246 914.422 C2.765 914.744 2.765 914.744 0.332 916.373 C-4.233 919.352 -7.779 921.545 -13.414 920.73 C-19.159 919.125 -23.728 915.696 -28.524 912.255 C-30.911 910.556 -33.335 908.912 -35.757 907.262 C-59.377 891.143 -82.585 874.511 -105.227 857.043 C-105.892 856.53 -106.557 856.017 -107.242 855.488 C-125.365 841.47 -142.924 826.73 -159.809 811.242 C-161.961 809.285 -164.144 807.376 -166.352 805.48 C-170.005 802.312 -173.391 798.919 -176.758 795.449 C-178.771 793.487 -180.813 791.653 -182.941 789.82 C-187.594 785.781 -191.945 781.472 -196.289 777.105 C-196.671 776.726 -196.671 776.726 -198.604 774.803 C-202.76 770.639 -206.746 766.389 -210.585 761.93 C-213.175 758.953 -215.894 756.101 -218.602 753.23 C-223.252 748.261 -227.676 743.184 -231.93 737.867 C-234.074 735.231 -236.278 732.666 -238.513 730.107 C-244.93 722.744 -250.847 715.094 -256.623 707.222 C-258.319 704.917 -260.029 702.624 -261.742 700.332 C-278.64 677.663 -293.542 653.783 -307.227 629.043 C-307.677 628.23 -308.128 627.417 -308.592 626.579 C-322.569 601.144 -333.9 574.505 -343.227 547.043 C-343.44 546.417 -343.654 545.792 -343.874 545.147 C-357.92 503.949 -366.214 461.356 -370.227 418.043 C-370.315 417.142 -370.404 416.241 -370.496 415.313 C-371.576 402.698 -371.391 390.048 -371.404 377.396 C-371.41 374.705 -371.416 372.013 -371.423 369.321 C-371.443 361.288 -371.453 353.255 -371.462 345.223 C-371.466 342.193 -371.47 339.164 -371.474 336.134 C-371.492 322.766 -371.508 309.397 -371.516 296.029 C-371.518 292.769 -371.52 289.51 -371.522 286.251 C-371.522 285.441 -371.523 284.631 -371.523 283.797 C-371.532 270.642 -371.557 257.488 -371.589 244.333 C-371.622 230.807 -371.64 217.28 -371.644 203.753 C-371.646 196.166 -371.654 188.58 -371.68 180.993 C-371.702 174.542 -371.71 168.091 -371.7 161.64 C-371.696 158.35 -371.7 155.061 -371.717 151.771 C-371.734 148.204 -371.728 144.639 -371.714 141.072 C-371.725 140.033 -371.736 138.994 -371.748 137.924 C-371.694 131.985 -371.182 128.57 -367.227 124.043 C-364.413 122.122 -361.916 121.724 -358.554 121.436 C-358.09 121.394 -358.09 121.394 -355.739 121.182 C-354.733 121.099 -353.728 121.015 -352.691 120.93 C-350.516 120.735 -348.34 120.54 -346.164 120.344 C-345.022 120.245 -343.88 120.145 -342.703 120.042 C-264.81 113.184 -190.443 96.311 -120.042 61.431 C-117.429 60.143 -114.805 58.882 -112.176 57.629 C-92.35 48.091 -73.27 36.622 -55.227 24.043 C-53.668 22.967 -52.109 21.892 -50.551 20.816 C-43.589 15.991 -36.66 11.132 -29.867 6.07 C-29.004 5.427 -28.142 4.784 -27.253 4.122 C-25.603 2.887 -23.958 1.645 -22.317 0.397 C-21.576 -0.159 -20.834 -0.716 -20.07 -1.289 C-19.423 -1.781 -18.775 -2.273 -18.107 -2.781 C-11.493 -6.918 -5.804 -4.059 0 0 Z M-51.227 180.043 C-52.126 180.484 -53.026 180.925 -53.953 181.379 C-61.163 185.055 -67.18 189.689 -73.227 195.043 C-73.852 195.584 -74.477 196.126 -75.121 196.684 C-91.559 211.929 -102.29 235.784 -103.321 258.082 C-103.36 260.242 -103.369 262.399 -103.367 264.559 C-103.37 265.379 -103.373 266.199 -103.376 267.043 C-103.385 269.77 -103.386 272.497 -103.388 275.224 C-103.392 277.188 -103.397 279.152 -103.403 281.116 C-103.416 286.438 -103.422 291.761 -103.427 297.084 C-103.43 300.416 -103.434 303.749 -103.438 307.081 C-103.452 317.526 -103.462 327.972 -103.465 338.417 C-103.47 350.438 -103.487 362.458 -103.516 374.479 C-103.538 383.794 -103.548 393.109 -103.549 402.424 C-103.551 407.976 -103.556 413.528 -103.574 419.081 C-103.591 424.312 -103.593 429.542 -103.584 434.773 C-103.583 436.68 -103.588 438.587 -103.598 440.494 C-103.73 467.323 -98.044 491.211 -80.227 512.043 C-79.61 512.805 -78.994 513.567 -78.359 514.352 C-64.649 530.765 -43.389 541.45 -22.227 544.043 C6.441 545.584 31.012 538.487 52.637 519.078 C69.861 502.862 81.183 478.473 81.963 454.773 C82.065 449.651 82.056 444.53 82.048 439.407 C82.052 437.443 82.058 435.479 82.064 433.515 C82.077 428.208 82.078 422.902 82.075 417.596 C82.074 413.151 82.079 408.706 82.084 404.261 C82.095 393.763 82.095 383.265 82.089 372.768 C82.083 361.976 82.095 351.185 82.117 340.393 C82.134 331.095 82.14 321.797 82.137 312.499 C82.135 306.96 82.138 301.422 82.152 295.883 C82.164 290.669 82.162 285.454 82.149 280.239 C82.147 278.339 82.15 276.438 82.158 274.538 C82.264 248.559 77.16 224.351 59.773 204.043 C59.119 203.244 58.464 202.445 57.789 201.621 C43.857 185.249 23.358 173.358 1.773 171.043 C-17.031 169.654 -34.354 171.165 -51.227 180.043 Z M-166.102 435.543 C-175.293 455.969 -164.682 489.059 -157.34 508.844 C-143.145 545.028 -116.363 575.094 -82.024 593.095 C-80.411 593.946 -78.815 594.83 -77.223 595.719 C-61.335 604.271 -43.02 608.264 -25.227 610.043 C-25.227 634.793 -25.227 659.543 -25.227 685.043 C-57.289 684.855 -57.289 684.855 -67.379 684.773 C-70.028 684.764 -72.676 684.756 -75.324 684.75 C-76.005 684.742 -76.686 684.734 -77.387 684.726 C-93.266 684.553 -93.266 684.553 -98.969 689.578 C-102.693 694.599 -103.872 697.754 -103.227 704.043 C-101.273 709.39 -98.314 712.499 -93.227 715.043 C-91.074 715.146 -88.918 715.183 -86.762 715.19 C-86.091 715.194 -85.42 715.197 -84.728 715.201 C-82.468 715.212 -80.208 715.216 -77.948 715.22 C-76.332 715.226 -74.716 715.233 -73.1 715.24 C-68.701 715.257 -64.302 715.268 -59.903 715.276 C-57.156 715.281 -54.408 715.287 -51.66 715.294 C-43.066 715.313 -34.472 715.327 -25.878 715.335 C-15.953 715.345 -6.029 715.371 3.896 715.412 C11.564 715.442 19.232 715.457 26.9 715.46 C31.481 715.462 36.062 715.471 40.643 715.496 C44.954 715.52 49.264 715.524 53.575 715.514 C55.156 715.513 56.737 715.52 58.318 715.533 C60.48 715.551 62.64 715.544 64.801 715.531 C66.01 715.533 67.219 715.535 68.464 715.538 C73.273 714.819 76.407 712.598 79.586 708.98 C82.016 705.016 82.082 701.6 81.773 697.043 C79.88 691.784 77.176 689.253 72.773 686.043 C69.419 684.925 66.909 684.923 63.374 684.929 C62.72 684.929 62.065 684.929 61.391 684.929 C59.275 684.93 57.159 684.937 55.043 684.945 C53.749 684.946 52.454 684.947 51.12 684.948 C46.276 684.954 41.431 684.968 36.586 684.98 C25.758 685.001 14.93 685.022 3.773 685.043 C3.773 660.293 3.773 635.543 3.773 610.043 C6.248 609.713 6.248 609.713 18.773 608.043 C21.916 607.404 24.941 606.751 28.023 605.918 C28.811 605.706 29.598 605.495 30.409 605.276 C62.704 596.167 92.658 575.938 112.773 549.043 C113.166 548.539 113.166 548.539 115.152 545.988 C135.525 519.256 145.964 486.511 146.273 453.105 C146.283 452.456 146.283 452.456 146.33 449.169 C146.252 437.792 146.252 437.792 141.773 433.043 C137.94 429.732 134.946 428.359 129.793 428.664 C124.576 429.643 121.686 431.775 118.605 436.055 C116.105 440.665 116.228 445.151 116.211 450.293 C115.388 480.611 106.509 509.528 86.773 533.043 C86.067 533.889 85.361 534.734 84.633 535.605 C63.782 559.607 35.481 575.16 3.773 579.043 C-33.243 581.486 -65.594 572.143 -94.23 548.57 C-118.195 527.539 -134.733 495.984 -137.227 464.043 C-137.299 462.17 -137.362 460.296 -137.418 458.422 C-137.45 457.405 -137.483 456.387 -137.516 455.339 C-137.572 453.314 -137.608 451.288 -137.622 449.262 C-137.762 443.115 -138.526 438.104 -142.227 433.043 C-146.152 429.677 -150.069 428.365 -155.238 428.656 C-159.873 429.558 -163.248 431.738 -166.102 435.543 Z " fill="#4E7D5B" transform="translate(638.2265625,168.95703125)"/>
</svg>
